<svg width="336" height="208" viewBox="0 0 336 208" fill="none" xmlns="http://www.w3.org/2000/svg">
<rect width="336" height="208" fill="#D9D9D9"/>
<path d="M61.3537 107.388C61.3537 109.044 61.7257 110.376 62.4697 111.384C63.2137 112.392 64.3177 112.896 65.7817 112.896C66.2617 112.896 66.7057 112.884 67.1137 112.86C67.5217 112.812 67.8577 112.764 68.1217 112.716V102.96C67.7857 102.744 67.3417 102.564 66.7897 102.42C66.2617 102.276 65.7217 102.204 65.1697 102.204C62.6257 102.204 61.3537 103.932 61.3537 107.388ZM73.4857 116.388C73.0057 116.532 72.4537 116.676 71.8297 116.82C71.2057 116.94 70.5457 117.048 69.8497 117.144C69.1777 117.24 68.4817 117.312 67.7617 117.36C67.0657 117.432 66.3937 117.468 65.7457 117.468C64.1857 117.468 62.7937 117.24 61.5697 116.784C60.3457 116.328 59.3137 115.68 58.4737 114.84C57.6337 113.976 56.9857 112.944 56.5297 111.744C56.0977 110.52 55.8817 109.152 55.8817 107.64C55.8817 106.104 56.0737 104.724 56.4577 103.5C56.8417 102.252 57.3937 101.196 58.1137 100.332C58.8337 99.468 59.7097 98.808 60.7417 98.352C61.7977 97.896 62.9977 97.668 64.3417 97.668C65.0857 97.668 65.7457 97.74 66.3217 97.884C66.9217 98.028 67.5217 98.232 68.1217 98.496V89.928L73.4857 89.064V116.388ZM98.0203 107.496C98.0203 108.984 97.8043 110.352 97.3723 111.6C96.9403 112.824 96.3163 113.88 95.5003 114.768C94.6843 115.632 93.7003 116.304 92.5483 116.784C91.4203 117.264 90.1483 117.504 88.7323 117.504C87.3403 117.504 86.0683 117.264 84.9163 116.784C83.7883 116.304 82.8163 115.632 82.0003 114.768C81.1843 113.88 80.5483 112.824 80.0923 111.6C79.6363 110.352 79.4083 108.984 79.4083 107.496C79.4083 106.008 79.6363 104.652 80.0923 103.428C80.5723 102.204 81.2203 101.16 82.0363 100.296C82.8763 99.432 83.8603 98.76 84.9883 98.28C86.1403 97.8 87.3883 97.56 88.7323 97.56C90.1003 97.56 91.3483 97.8 92.4763 98.28C93.6283 98.76 94.6123 99.432 95.4283 100.296C96.2443 101.16 96.8803 102.204 97.3363 103.428C97.7923 104.652 98.0203 106.008 98.0203 107.496ZM92.5483 107.496C92.5483 105.84 92.2123 104.544 91.5403 103.608C90.8923 102.648 89.9563 102.168 88.7323 102.168C87.5083 102.168 86.5603 102.648 85.8883 103.608C85.2163 104.544 84.8803 105.84 84.8803 107.496C84.8803 109.152 85.2163 110.472 85.8883 111.456C86.5603 112.416 87.5083 112.896 88.7323 112.896C89.9563 112.896 90.8923 112.416 91.5403 111.456C92.2123 110.472 92.5483 109.152 92.5483 107.496ZM114.379 106.956C114.379 105.228 114.151 104.004 113.695 103.284C113.263 102.564 112.507 102.204 111.427 102.204C111.091 102.204 110.743 102.228 110.383 102.276C110.023 102.3 109.675 102.336 109.339 102.384V117H103.975V98.712C104.431 98.592 104.959 98.472 105.559 98.352C106.183 98.208 106.831 98.088 107.503 97.992C108.199 97.872 108.907 97.788 109.627 97.74C110.347 97.668 111.055 97.632 111.751 97.632C113.119 97.632 114.223 97.812 115.063 98.172C115.927 98.508 116.635 98.916 117.187 99.396C117.955 98.844 118.831 98.412 119.815 98.1C120.823 97.788 121.747 97.632 122.587 97.632C124.099 97.632 125.335 97.848 126.295 98.28C127.279 98.688 128.059 99.276 128.635 100.044C129.211 100.812 129.607 101.724 129.823 102.78C130.039 103.836 130.147 105.012 130.147 106.308V117H124.783V106.956C124.783 105.228 124.555 104.004 124.099 103.284C123.667 102.564 122.911 102.204 121.831 102.204C121.543 102.204 121.135 102.276 120.607 102.42C120.103 102.564 119.683 102.744 119.347 102.96C119.515 103.512 119.623 104.1 119.671 104.724C119.719 105.324 119.743 105.972 119.743 106.668V117H114.379V106.956ZM144.054 113.256C144.582 113.256 145.086 113.244 145.566 113.22C146.046 113.196 146.43 113.16 146.718 113.112V109.044C146.502 108.996 146.178 108.948 145.746 108.9C145.314 108.852 144.918 108.828 144.558 108.828C144.054 108.828 143.574 108.864 143.118 108.936C142.686 108.984 142.302 109.092 141.966 109.26C141.63 109.428 141.366 109.656 141.174 109.944C140.982 110.232 140.886 110.592 140.886 111.024C140.886 111.864 141.162 112.452 141.714 112.788C142.29 113.1 143.07 113.256 144.054 113.256ZM143.622 97.56C145.206 97.56 146.526 97.74 147.582 98.1C148.638 98.46 149.478 98.976 150.102 99.648C150.75 100.32 151.206 101.136 151.47 102.096C151.734 103.056 151.866 104.124 151.866 105.3V116.46C151.098 116.628 150.03 116.82 148.662 117.036C147.294 117.276 145.638 117.396 143.694 117.396C142.47 117.396 141.354 117.288 140.346 117.072C139.362 116.856 138.51 116.508 137.79 116.028C137.07 115.524 136.518 114.876 136.134 114.084C135.75 113.292 135.558 112.32 135.558 111.168C135.558 110.064 135.774 109.128 136.206 108.36C136.662 107.592 137.262 106.98 138.006 106.524C138.75 106.068 139.602 105.744 140.562 105.552C141.522 105.336 142.518 105.228 143.55 105.228C144.246 105.228 144.858 105.264 145.386 105.336C145.938 105.384 146.382 105.456 146.718 105.552V105.048C146.718 104.136 146.442 103.404 145.89 102.852C145.338 102.3 144.378 102.024 143.01 102.024C142.098 102.024 141.198 102.096 140.31 102.24C139.422 102.36 138.654 102.54 138.006 102.78L137.322 98.46C137.634 98.364 138.018 98.268 138.474 98.172C138.954 98.052 139.47 97.956 140.022 97.884C140.574 97.788 141.15 97.716 141.75 97.668C142.374 97.596 142.998 97.56 143.622 97.56ZM163.881 117H158.517V98.064H163.881V117ZM164.385 92.592C164.385 93.576 164.061 94.356 163.413 94.932C162.789 95.484 162.045 95.76 161.181 95.76C160.317 95.76 159.561 95.484 158.913 94.932C158.289 94.356 157.977 93.576 157.977 92.592C157.977 91.608 158.289 90.84 158.913 90.288C159.561 89.712 160.317 89.424 161.181 89.424C162.045 89.424 162.789 89.712 163.413 90.288C164.061 90.84 164.385 91.608 164.385 92.592ZM170.723 98.712C171.635 98.448 172.811 98.208 174.251 97.992C175.691 97.752 177.203 97.632 178.787 97.632C180.395 97.632 181.727 97.848 182.783 98.28C183.863 98.688 184.715 99.276 185.339 100.044C185.963 100.812 186.407 101.724 186.671 102.78C186.935 103.836 187.067 105.012 187.067 106.308V117H181.703V106.956C181.703 105.228 181.475 104.004 181.019 103.284C180.563 102.564 179.711 102.204 178.463 102.204C178.079 102.204 177.671 102.228 177.239 102.276C176.807 102.3 176.423 102.336 176.087 102.384V117H170.723V98.712ZM198.978 114.156C198.978 115.236 198.63 116.064 197.934 116.64C197.262 117.192 196.494 117.468 195.63 117.468C194.766 117.468 193.986 117.192 193.29 116.64C192.618 116.064 192.282 115.236 192.282 114.156C192.282 113.076 192.618 112.26 193.29 111.708C193.986 111.132 194.766 110.844 195.63 110.844C196.494 110.844 197.262 111.132 197.934 111.708C198.63 112.26 198.978 113.076 198.978 114.156ZM212.59 89.064C213.598 89.064 214.522 89.172 215.362 89.388C216.202 89.58 216.85 89.772 217.306 89.964L216.262 94.248C215.782 94.032 215.254 93.876 214.678 93.78C214.126 93.66 213.61 93.6 213.13 93.6C212.482 93.6 211.93 93.696 211.474 93.888C211.042 94.056 210.694 94.296 210.43 94.608C210.19 94.92 210.01 95.292 209.89 95.724C209.794 96.156 209.746 96.624 209.746 97.128V98.064H216.37V102.528H209.746V117H204.382V97.056C204.382 94.608 205.066 92.664 206.434 91.224C207.826 89.784 209.878 89.064 212.59 89.064ZM228.324 113.256C228.852 113.256 229.356 113.244 229.836 113.22C230.316 113.196 230.7 113.16 230.988 113.112V109.044C230.772 108.996 230.448 108.948 230.016 108.9C229.584 108.852 229.188 108.828 228.828 108.828C228.324 108.828 227.844 108.864 227.388 108.936C226.956 108.984 226.572 109.092 226.236 109.26C225.9 109.428 225.636 109.656 225.444 109.944C225.252 110.232 225.156 110.592 225.156 111.024C225.156 111.864 225.432 112.452 225.984 112.788C226.56 113.1 227.34 113.256 228.324 113.256ZM227.892 97.56C229.476 97.56 230.796 97.74 231.852 98.1C232.908 98.46 233.748 98.976 234.372 99.648C235.02 100.32 235.476 101.136 235.74 102.096C236.004 103.056 236.136 104.124 236.136 105.3V116.46C235.368 116.628 234.3 116.82 232.932 117.036C231.564 117.276 229.908 117.396 227.964 117.396C226.74 117.396 225.624 117.288 224.616 117.072C223.632 116.856 222.78 116.508 222.06 116.028C221.34 115.524 220.788 114.876 220.404 114.084C220.02 113.292 219.828 112.32 219.828 111.168C219.828 110.064 220.044 109.128 220.476 108.36C220.932 107.592 221.532 106.98 222.276 106.524C223.02 106.068 223.872 105.744 224.832 105.552C225.792 105.336 226.788 105.228 227.82 105.228C228.516 105.228 229.128 105.264 229.656 105.336C230.208 105.384 230.652 105.456 230.988 105.552V105.048C230.988 104.136 230.712 103.404 230.16 102.852C229.608 102.3 228.648 102.024 227.28 102.024C226.368 102.024 225.468 102.096 224.58 102.24C223.692 102.36 222.924 102.54 222.276 102.78L221.592 98.46C221.904 98.364 222.288 98.268 222.744 98.172C223.224 98.052 223.74 97.956 224.292 97.884C224.844 97.788 225.42 97.716 226.02 97.668C226.644 97.596 227.268 97.56 227.892 97.56ZM242.786 98.712C243.698 98.448 244.874 98.208 246.314 97.992C247.754 97.752 249.266 97.632 250.85 97.632C252.458 97.632 253.79 97.848 254.846 98.28C255.926 98.688 256.778 99.276 257.402 100.044C258.026 100.812 258.47 101.724 258.734 102.78C258.998 103.836 259.13 105.012 259.13 106.308V117H253.766V106.956C253.766 105.228 253.538 104.004 253.082 103.284C252.626 102.564 251.774 102.204 250.526 102.204C250.142 102.204 249.734 102.228 249.302 102.276C248.87 102.3 248.486 102.336 248.15 102.384V117H242.786V98.712ZM271.222 113.148C272.206 113.148 272.902 113.052 273.31 112.86C273.718 112.668 273.922 112.296 273.922 111.744C273.922 111.312 273.658 110.94 273.13 110.628C272.602 110.292 271.798 109.92 270.718 109.512C269.878 109.2 269.11 108.876 268.414 108.54C267.742 108.204 267.166 107.808 266.686 107.352C266.206 106.872 265.834 106.308 265.57 105.66C265.306 105.012 265.174 104.232 265.174 103.32C265.174 101.544 265.834 100.14 267.154 99.108C268.474 98.076 270.286 97.56 272.59 97.56C273.742 97.56 274.846 97.668 275.902 97.884C276.958 98.076 277.798 98.292 278.422 98.532L277.486 102.708C276.862 102.492 276.178 102.3 275.434 102.132C274.714 101.964 273.898 101.88 272.986 101.88C271.306 101.88 270.466 102.348 270.466 103.284C270.466 103.5 270.502 103.692 270.574 103.86C270.646 104.028 270.79 104.196 271.006 104.364C271.222 104.508 271.51 104.676 271.87 104.868C272.254 105.036 272.734 105.228 273.31 105.444C274.486 105.876 275.458 106.308 276.226 106.74C276.994 107.148 277.594 107.604 278.026 108.108C278.482 108.588 278.794 109.128 278.962 109.728C279.154 110.328 279.25 111.024 279.25 111.816C279.25 113.688 278.542 115.104 277.126 116.064C275.734 117.024 273.754 117.504 271.186 117.504C269.506 117.504 268.102 117.36 266.974 117.072C265.87 116.784 265.102 116.544 264.67 116.352L265.57 111.996C266.482 112.356 267.418 112.644 268.378 112.86C269.338 113.052 270.286 113.148 271.222 113.148Z" fill="black"/>
</svg>
