<svg width="40" height="40" viewBox="0 0 40 40" fill="none" xmlns="http://www.w3.org/2000/svg">
<path class="logo-frame" d="M20 40C31.0457 40 40 31.0457 40 20C40 8.9543 31.0457 0 20 0H5C2.23858 0 0 2.23858 0 5V20V35C0 37.7614 2.23858 40 5 40H20Z"/>
<path class="logo-core" clip-rule="evenodd" d="M22.8572 22.7993C22.1312 23.5403 21.1193 24 20 24C17.7909 24 16 22.2091 16 20C16 17.7909 17.7909 16 20 16C21.0899 16 22.0779 16.4359 22.7993 17.1428L28.4563 11.4858C26.2871 9.33124 23.299 8 20 8C13.3726 8 8 13.3726 8 20C8 26.6274 13.3726 32 20 32C23.3284 32 26.3403 30.6449 28.5142 28.4563L22.8572 22.7993Z"/>
<style>
.logo-frame {fill: black;}
.logo-core {fill: #81FF7E;}
@media (prefers-color-scheme: dark) {
  .logo-frame {fill: #81FF7E;}
  .logo-core {fill: black;}
}
</style>
</svg>
