<svg width="18" height="18" viewBox="0 0 18 18" fill="none" xmlns="http://www.w3.org/2000/svg">
<path fill-rule="evenodd" clip-rule="evenodd" d="M0 3C0 1.34315 1.34315 0 3 0H15C16.6569 0 18 1.34315 18 3V15C18 16.6569 16.6569 18 15 18H3C1.34315 18 0 16.6569 0 15V3ZM2 4V15C2 15.5523 2.44772 16 3 16H15C15.5523 16 16 15.5523 16 15V4H2ZM5.66807 11.7446C6.18509 11.7446 6.70211 11.5723 7.10424 11.2851C7.33403 11.0553 7.67871 11.1127 7.9085 11.4C8.08084 11.6298 8.02339 12.0319 7.7936 12.2042C7.16169 12.6638 6.41488 12.8936 5.66807 12.8936H4.40424C4.05956 12.8936 3.82977 12.6638 3.82977 12.3191C3.82977 11.9744 4.05956 11.7446 4.40424 11.7446H5.66807ZM9.57446 9.27447C9.7468 9.27447 9.91914 9.21702 10.034 9.10213C10.4362 8.58511 11.0681 8.29787 11.7574 8.29787H12.217L12.0447 8.47021C11.8149 8.7 11.8149 9.04468 12.0447 9.27447C12.1596 9.38936 12.3319 9.44681 12.4468 9.44681C12.5617 9.44681 12.734 9.38936 12.8489 9.27447L13.9979 8.12553C14.0553 8.06808 14.1128 8.01064 14.1128 7.95319C14.1702 7.8383 14.1702 7.66596 14.1128 7.49362C14.084 7.46489 14.0697 7.43617 14.0553 7.40745C14.041 7.37872 14.0266 7.35 13.9979 7.32128L12.8489 6.17234C12.6191 5.94255 12.2745 5.94255 12.0447 6.17234C11.8149 6.40213 11.8149 6.74681 12.0447 6.9766L12.217 7.14894H11.7574C10.7234 7.14894 9.80425 7.60851 9.11489 8.35532C8.8851 8.58511 8.94255 8.92979 9.17233 9.15957C9.28723 9.27447 9.45957 9.27447 9.57446 9.27447ZM12.8489 10.7681L13.9979 11.917C14.2276 12.1468 14.2276 12.4915 13.9979 12.7787L12.8489 13.9277C12.734 14.0426 12.5617 14.1 12.4468 14.1C12.3319 14.1 12.1596 14.0426 12.0447 13.9277C11.8149 13.6979 11.8149 13.3532 12.0447 13.1234L12.217 12.9511H11.3553C10.034 12.9511 8.82765 12.2043 8.25318 10.9979L7.56382 9.61915C7.16169 8.81489 6.41488 8.29787 5.49573 8.29787H4.40424C4.05956 8.29787 3.82977 8.06808 3.82977 7.7234C3.82977 7.37872 4.05956 7.14894 4.40424 7.14894H5.49573C6.81701 7.14894 8.02339 7.89574 8.59786 9.04468L9.28722 10.4234C9.68935 11.2277 10.4362 11.7447 11.3553 11.7447H12.217L12.0447 11.5723C11.8149 11.3426 11.8149 10.9979 12.0447 10.7681C12.2745 10.5383 12.6191 10.5383 12.8489 10.7681Z" fill="black"/>
</svg>
