<svg xmlns="http://www.w3.org/2000/svg" width="40" height="40" fill="none"><path fill="#D0D4DC" d="M28.333 35.333v-10c-2.333 1.834-5.166 3-8.333 3s-6-1.166-8.333-3v10c0 1 1.166 1.667 2 1l6.333-4.5 6.333 4.5c.834.667 2 .167 2-1Z"/><path fill="#B5BAC5" d="M20 3.333C13.5 3.333 8.333 8.5 8.333 15S13.5 26.667 20 26.667 31.667 21.5 31.667 15 26.5 3.333 20 3.333Zm2.833 15.334c1 0 1.667.666 1.667 1.666 0 1-.667 1.667-1.667 1.667h-5.666c-1 0-1.667-.667-1.667-1.667 0-2.5 1.5-4 2.833-4.833.334-.167.5-.333.834-.5l.166-.167c.334-.166.5-.333.834-.666.5-.334.833-.667 1-1.167.5-.833.333-1.167.166-1.333-.166-.334-.666-.5-1.166-.5-.667 0-1.167.666-1.167 1.333 0 1-.667 1.667-1.667 1.667s-1.666-.667-1.666-1.667c0-2.333 1.833-4.667 4.5-4.667 1.5 0 3 .667 4 2C25 11.167 25 13 24 14.667c-.5.833-1.167 1.5-1.833 2-.334.333-.667.5-1 .666L21 17.5c-.333.167-.5.333-.667.5-.333.167-.5.333-.666.5h3.166v.167Z"/></svg>