<svg xmlns="http://www.w3.org/2000/svg" width="40" height="40" fill="none"><path fill="#D0D4DC" d="M28.333 35.333v-10c-2.333 1.834-5.166 3-8.333 3s-6-1.166-8.333-3v10c0 1 1.166 1.667 2 1l6.333-4.5 6.333 4.5c.834.667 2 .167 2-1Z"/><path fill="#EBDBBA" d="M31.667 15C31.667 8.5 26.5 3.333 20 3.333S8.333 8.5 8.333 15 13.5 26.667 20 26.667 31.667 21.5 31.667 15ZM19 11.5c-.167.167-.333.333-.333.5-.167.833-1.167 1.333-2 1.167-1-.334-1.5-1.167-1.167-2 .167-.667.5-1.334 1.333-2C17.5 8.333 18.667 8 20 8c2.833 0 4.667 2.167 4.667 4.167 0 .666-.167 1.833-.834 2.833 0 .167.167.167.167.333.5.667.667 1.5.667 2.334 0 1.5-.5 2.666-1.5 3.5-1 .833-2.167 1-3 1-.834 0-1.834-.167-2.667-.667-.833-.5-1.5-1.333-1.833-2.5-.334-.833.166-1.833 1-2.167.833-.333 1.833.167 2.166 1 .167.5.334.667.334.667.166 0 .333.167 1 .167.5 0 .833-.167 1-.334.166-.166.333-.333.333-1V17s-.167-.167-.333-.167c-.667-.166-1.167-.166-1.667-.166-1 0-1.667-.667-1.667-1.667s.667-1.667 1.667-1.667c1.167 0 1.5-.333 1.5-.5.167-.166.167-.5.167-.833 0-.167-.167-.833-1.334-.833-.5.166-.666.333-.833.333Z"/></svg>