<svg xmlns="http://www.w3.org/2000/svg" width="40" height="40" fill="none"><path fill="#D0D4DC" d="M28.333 35.333v-10c-2.333 1.834-5.166 3-8.333 3s-6-1.166-8.333-3v10c0 1 1.166 1.667 2 1l6.333-4.5 6.333 4.5c.834.667 2 .167 2-1Z"/><path fill="#F5D00C" d="M31.667 15C31.667 8.5 26.5 3.333 20 3.333S8.333 8.5 8.333 15 13.5 26.667 20 26.667 31.667 21.5 31.667 15Zm-13-.333c-.167 0-.334.166-.334.166-.833.5-1.833.334-2.333-.5-.5-.666-.333-1.666.333-2.166 1.167-.834 2-2 2.334-2.834C18.833 8.5 19.667 8 20.5 8s1.5.833 1.5 1.667V20.5c0 1-.667 1.667-1.667 1.667s-1.666-.667-1.666-1.667v-5.833Z"/></svg>