<svg width="18" height="18" viewBox="0 0 18 18" fill="none" xmlns="http://www.w3.org/2000/svg">
<path fill-rule="evenodd" clip-rule="evenodd" d="M3 0C1.34315 0 0 1.34315 0 3V15C0 16.6569 1.34315 18 3 18H15C16.6569 18 18 16.6569 18 15V3C18 1.34315 16.6569 0 15 0H3ZM2 15V4H16V15C16 15.5523 15.5523 16 15 16H3C2.44772 16 2 15.5523 2 15Z" fill="black"/>
<path fill-rule="evenodd" clip-rule="evenodd" d="M6.85116 8.92403C6.71516 9.01203 6.46316 9.05603 6.09516 9.05603V10.136C6.29516 10.136 6.45516 10.144 6.57516 10.16C6.70316 10.176 6.80316 10.216 6.87516 10.28C7.00316 10.384 7.06716 10.604 7.06716 10.94V12.164C7.06716 12.372 7.01116 12.54 6.89916 12.668C6.79516 12.788 6.65116 12.848 6.46716 12.848C6.28316 12.848 6.13516 12.788 6.02316 12.668C5.91916 12.54 5.86716 12.38 5.86716 12.188V11.552H4.64316V12.248C4.64316 12.584 4.69916 12.868 4.81116 13.1C4.93116 13.332 5.07916 13.52 5.25516 13.664C5.43116 13.808 5.62716 13.912 5.84316 13.976C6.05916 14.04 6.26316 14.072 6.45516 14.072C6.83916 14.072 7.14716 14 7.37916 13.856C7.61916 13.704 7.81516 13.516 7.96716 13.292C8.03116 13.196 8.08316 13.104 8.12316 13.016C8.16316 12.928 8.19516 12.82 8.21916 12.692C8.24316 12.572 8.25916 12.42 8.26716 12.236C8.28316 12.052 8.29116 11.82 8.29116 11.54C8.29116 11.236 8.28716 10.988 8.27916 10.796C8.27116 10.596 8.24316 10.424 8.19516 10.28C8.14716 10.144 8.07116 10.024 7.96716 9.92003C7.87116 9.81603 7.72716 9.70403 7.53516 9.58403C7.71116 9.48003 7.84716 9.38403 7.94316 9.29603C8.04716 9.20803 8.12716 9.10003 8.18316 8.97203C8.23116 8.85203 8.25916 8.70003 8.26716 8.51603C8.28316 8.33203 8.29116 8.09203 8.29116 7.79603C8.29116 7.27603 8.25516 6.88403 8.18316 6.62003C8.14316 6.48403 8.09116 6.36803 8.02716 6.27203C7.97116 6.17603 7.90316 6.08003 7.82316 5.98403C7.71116 5.84803 7.54316 5.71603 7.31916 5.58803C7.10316 5.45203 6.82716 5.38403 6.49116 5.38403C6.23516 5.38403 5.99516 5.43203 5.77116 5.52803C5.54716 5.62403 5.35116 5.75203 5.18316 5.91203C5.01516 6.07203 4.88316 6.26403 4.78716 6.48803C4.69116 6.71203 4.64316 6.94803 4.64316 7.19603V7.90403H5.86716V7.20803C5.86716 7.08003 5.91116 6.94803 5.99916 6.81203C6.09516 6.67603 6.25116 6.60803 6.46716 6.60803C6.65116 6.60803 6.79516 6.66403 6.89916 6.77603C7.01116 6.88803 7.06716 7.03203 7.06716 7.20803V8.31203C7.06716 8.63203 6.99516 8.83603 6.85116 8.92403ZM9.85201 6.45203C9.75601 6.67603 9.70801 6.93203 9.70801 7.22003V12.236C9.70801 12.524 9.75601 12.78 9.85201 13.004C9.95601 13.228 10.092 13.42 10.26 13.58C10.428 13.74 10.62 13.864 10.836 13.952C11.06 14.032 11.292 14.072 11.532 14.072C11.772 14.072 12 14.032 12.216 13.952C12.44 13.864 12.636 13.74 12.804 13.58C12.972 13.42 13.104 13.228 13.2 13.004C13.304 12.78 13.356 12.524 13.356 12.236V7.22003C13.356 6.93203 13.304 6.67603 13.2 6.45203C13.104 6.22803 12.972 6.03603 12.804 5.87603C12.636 5.71603 12.44 5.59603 12.216 5.51603C12 5.42803 11.772 5.38403 11.532 5.38403C11.292 5.38403 11.06 5.42803 10.836 5.51603C10.62 5.59603 10.428 5.71603 10.26 5.87603C10.092 6.03603 9.95601 6.22803 9.85201 6.45203ZM11.1 12.68C10.988 12.56 10.932 12.412 10.932 12.236V7.22003C10.932 7.04403 10.988 6.90003 11.1 6.78803C11.212 6.66803 11.356 6.60803 11.532 6.60803C11.708 6.60803 11.852 6.66803 11.964 6.78803C12.076 6.90003 12.132 7.04403 12.132 7.22003V12.236C12.132 12.412 12.076 12.56 11.964 12.68C11.852 12.792 11.708 12.848 11.532 12.848C11.356 12.848 11.212 12.792 11.1 12.68Z" fill="black"/>
</svg>
